<?xml version="1.0" encoding="UTF-8"?><svg id="Layer_2" xmlns="http://www.w3.org/2000/svg" viewBox="0 0 75.9 75.9"><g id="Layer_1-2"><path d="m37.9,68.6c-17,0-30.7-13.8-30.7-30.7S21,7.2,37.9,7.2s30.7,13.7,30.7,30.7-13.8,30.7-30.7,30.7ZM37.9,0C17,0,0,17,0,37.9s17,37.9,37.9,37.9,37.9-17,37.9-37.9S58.9,0,37.9,0Z" style="fill:#fff; stroke-width:0px;"/><polygon points="18.7 16.8 22.9 16.8 22.8 49.6 20.7 49.6 18.7 16.8" style="fill:#fff; stroke-width:0px;"/><polygon points="31.3 16.8 27.1 16.8 27.3 49.5 29.3 49.5 31.3 16.8" style="fill:#fff; stroke-width:0px;"/><path d="m26.6,61.5l-.5-44.7h-2.2l-.4,44.7h0s0,0,0,0c0,.8.7,1.5,1.5,1.5s1.5-.7,1.5-1.5,0,0,0,0h0Zm-1.6.5c-.3,0-.5-.2-.5-.5s.2-.5.5-.5.5.2.5.5-.2.5-.5.5Z" style="fill:#fff; stroke-width:0px;"/><polygon points="32.3 16.8 36.5 16.8 36.4 49.6 34.3 49.6 32.3 16.8" style="fill:#fff; stroke-width:0px;"/><polygon points="44.9 16.8 40.7 16.8 40.8 49.5 42.9 49.5 44.9 16.8" style="fill:#fff; stroke-width:0px;"/><path d="m40.2,61.5l-.5-44.7h-2.2l-.4,44.7h0s0,0,0,0c0,.8.7,1.5,1.5,1.5s1.5-.7,1.5-1.5,0,0,0,0h0Zm-1.6.5c-.3,0-.5-.2-.5-.5s.2-.5.5-.5.5.2.5.5-.2.5-.5.5Z" style="fill:#fff; stroke-width:0px;"/><polygon points="45.9 16.8 50.1 16.8 50 49.6 47.9 49.6 45.9 16.8" style="fill:#fff; stroke-width:0px;"/><polygon points="58.5 16.8 54.3 16.8 54.5 49.5 56.5 49.5 58.5 16.8" style="fill:#fff; stroke-width:0px;"/><path d="m53.8,61.5l-.5-44.7h-2.2l-.4,44.7h0s0,0,0,0c0,.8.7,1.5,1.5,1.5s1.5-.7,1.5-1.5,0,0,0,0h0Zm-1.6.5c-.3,0-.5-.2-.5-.5s.2-.5.5-.5.5.2.5.5-.2.5-.5.5Z" style="fill:#fff; stroke-width:0px;"/></g></svg>