<?xml version="1.0" encoding="UTF-8"?><svg id="Layer_2" xmlns="http://www.w3.org/2000/svg" viewBox="0 0 110.7 45"><g id="Layer_1-2"><path d="m5.2,15.2c.2,0,.2,0,.3.3,0,.3.4.9,1,1.7l8.5,10.5v-9.5c0-1.8-.9-2.7-2.6-2.7-.2,0-.2-.4,0-.4,1.9,0,4,0,5.8,0,.3,0,.3.4,0,.4-1.7,0-2.5.8-2.5,2.7v13.4c0,.2-.3.2-.4,0l-10.4-12.9v10c0,1.8.9,2.8,2.5,2.7.2,0,.2.4,0,.4-2,0-4,0-5.8,0-.3,0-.3-.4,0-.4,1.7,0,2.5-.9,2.5-2.7v-10.8c-1.3-1.7-2-2.4-3.9-2.4s-.2-.4,0-.4c1.7,0,3.6,0,5,0Z" style="fill:#fff; stroke:#fff; stroke-miterlimit:10; stroke-width:.2px;"/><path d="m27.6,15.6c-1.7,0-2.5.7-2.5,2.7v10.2c0,3.1,1.5,2.9,3,3,.2,0,.2.4,0,.4-2.4,0-5.3,0-7.7,0-.3,0-.3-.4,0-.4,1.7,0,2.5-.4,2.5-3.1v-10.2c0-2.2-1.5-2.5-3-2.5-.2,0-.2-.4,0-.4,2,.1,5.7,0,7.7,0,.3,0,.3.4,0,.4Z" style="fill:#fff; stroke:#fff; stroke-miterlimit:10; stroke-width:.2px;"/><path d="m47.7,31.8c-1.4,0-3,0-4.6,0-.1,0-.2,0-.2-.1l-3.5-5.9c-1.3-2.2-2.2-2.5-3.6-2.5h-.9v4.1c0,3.2.5,4.1,2.4,4,.2,0,.3.4,0,.4-2.4,0-4.5,0-6.9,0-.3,0-.3-.4,0-.4,1.8,0,2.3-.9,2.3-4v-8c0-3-.5-3.8-2.4-3.8-.2,0-.2-.4,0-.4,2,0,4.4,0,6.5,0,.2,0,.2.3,0,.4-1.5.2-1.9.9-1.9,3.8v3.4h1.7s3.3-4.1,3.3-4.1c1.4-1.7,1.3-3.1-.5-3.1-.2,0-.2-.4,0-.4,1.5.1,4.1.1,5.7,0,.2,0,.2.3,0,.3-1.4.2-3.1,1.5-4.6,3.4l-3.1,3.9c2.2,0,3.5,1.2,4.4,2.7l2.5,4.2c.8,1.3,2.1,1.9,3.4,1.8.2,0,.2.3,0,.4Z" style="fill:#fff; stroke:#fff; stroke-miterlimit:10; stroke-width:.2px;"/><path d="m45.9,31.4c.9,0,1.9-.3,3.1-3.1l4.6-10.6c-1-2-2-2.3-4.1-2.3s-.2-.4,0-.4c1.8,0,3.7,0,5.6,0,.1,0,.2,0,.2.2,0,.7.2,1.2.5,1.8l4.8,11c1.2,2.8,1.7,3.3,2.9,3.4.2,0,.2.4,0,.4-1.8-.1-4.6-.1-6.4,0-.2,0-.2-.4,0-.4,1.5,0,2.4-.4,1.3-3l-1.2-2.7c-2.1,0-4.1,0-6.2,0-.4.9-.7,1.9-1.1,2.8-1,2.5,0,3,1.3,3s.2.4,0,.4c-1.4,0-3.8,0-5.2,0-.3,0-.3-.3,0-.3Zm10.9-6.4l-2.9-6.5c-1,2.2-1.9,4.3-2.8,6.5,1.9,0,3.7,0,5.6,0Z" style="fill:#fff; stroke:#fff; stroke-miterlimit:10; stroke-width:.2px;"/><path d="m72,15.6c-1.7,0-2.5.7-2.5,2.7v10.2c0,3.1,1.5,2.9,3,3,.2,0,.2.4,0,.4-2.4,0-5.3,0-7.7,0-.3,0-.3-.4,0-.4,1.7,0,2.5-.4,2.5-3.1v-10.2c0-2.2-1.5-2.5-3-2.5-.2,0-.2-.4,0-.4,2,.1,5.7,0,7.7,0,.3,0,.3.4,0,.4Z" style="fill:#fff; stroke:#fff; stroke-miterlimit:10; stroke-width:.2px;"/><path d="m74.7,31.8c-.2,0-.2-.4,0-.4,1.7,0,2.3-.9,2.3-3.4v-9.3c0-2.4-.8-3.1-3-3.1s-.2-.4,0-.4c2.4,0,4.9,0,6.6,0,6.2,0,10.2,3.4,10.2,8.7s-3.4,7.8-8.7,7.8-5.3,0-7.4,0Zm4.5-3.1c0,1.8.7,2.5,2.9,2.5,3.9,0,6.2-2.7,6.2-7.3s-3-8.1-8-8.1h-1.1v12.9Z" style="fill:#fff; stroke:#fff; stroke-miterlimit:10; stroke-width:.2px;"/><path d="m110.5,23.9c0,4.7-4.2,8.2-8.4,8.2s-8.3-4-8.3-8.4,2.7-8.7,8.4-8.7,8.3,4.8,8.3,9Zm-14.2-.7c0,5,2.6,8.2,5.9,8.2s5.8-3.7,5.8-8.3-1.9-7.6-6-7.6-5.7,3-5.7,7.6Z" style="fill:#fff; stroke:#fff; stroke-miterlimit:10; stroke-width:.2px;"/><text transform="translate(29.1 42.5)" style="fill:#fff; font-family:MinionConceptRoman-Bold, &apos;Minion Variable Concept&apos;; font-size:7px; font-variation-settings:&apos;wght&apos; 700, &apos;opsz&apos; 11; font-weight:700;"><tspan x="0" y="0" style="letter-spacing:.3em;">S</tspan><tspan x="5.4" y="0" style="letter-spacing:.3em;">I</tspan><tspan x="9.9" y="0" style="letter-spacing:.3em;">N</tspan><tspan x="17" y="0" style="letter-spacing:.3em;">C</tspan><tspan x="23.7" y="0" style="letter-spacing:.3em;">E 1866</tspan></text><text transform="translate(27.9 8.7)" style="fill:#fff; font-family:ShipporiMincho-Medium, &apos;Shippori Mincho&apos;; font-size:9.9px; font-weight:500; letter-spacing:0em;"><tspan x="0" y="0">二階堂酒造</tspan></text></g></svg>