<?xml version="1.0" encoding="UTF-8"?><svg id="Layer_2" xmlns="http://www.w3.org/2000/svg" viewBox="0 0 300.94 283.95"><g id="Layer_1-2"><polygon points="114.67 30.66 122.26 30.66 122.03 90.12 118.28 90.12 114.67 30.66" style="fill:#1d1d1b; stroke-width:0px;"/><polygon points="137.51 30.57 129.92 30.57 130.14 90.02 133.89 90.02 137.51 30.57" style="fill:#1d1d1b; stroke-width:0px;"/><path d="m128.98,111.8l-.88-81.14h-3.99l-.65,81.14h0c0,.05-.01.1-.01.15,0,1.52,1.22,2.74,2.74,2.74s2.75-1.23,2.75-2.74c0-.05-.01-.1-.02-.15h.06Zm-2.86.99c-.55,0-.99-.44-.99-.99s.44-.98.99-.98.98.44.98.98-.44.99-.98.99" style="fill:#1d1d1b; stroke-width:0px;"/><polygon points="139.26 30.66 146.85 30.66 146.62 90.12 142.87 90.12 139.26 30.66" style="fill:#1d1d1b; stroke-width:0px;"/><polygon points="162.09 30.57 154.51 30.57 154.73 90.02 158.48 90.02 162.09 30.57" style="fill:#1d1d1b; stroke-width:0px;"/><path d="m153.56,111.8l-.88-81.14h-3.99l-.66,81.14h.01c0,.05-.02.1-.02.15,0,1.52,1.23,2.74,2.74,2.74s2.74-1.23,2.74-2.74c0-.05-.01-.1-.01-.15h.06Zm-2.86.99c-.54,0-.99-.44-.99-.99s.44-.98.99-.98.99.44.99.98-.43.99-.99.99" style="fill:#1d1d1b; stroke-width:0px;"/><path d="m150.39,124.54c-30.77,0-55.72-24.95-55.72-55.73s24.95-55.72,55.72-55.72,55.73,24.95,55.73,55.72-24.95,55.73-55.73,55.73m0-124.54c-38,0-68.81,30.81-68.81,68.82s30.81,68.82,68.81,68.82,68.81-30.81,68.81-68.82S188.4,0,150.39,0" style="fill:#1d1d1b; stroke-width:0px;"/><polygon points="164.01 30.66 171.6 30.66 171.37 90.12 167.62 90.12 164.01 30.66" style="fill:#1d1d1b; stroke-width:0px;"/><polygon points="186.84 30.57 179.25 30.57 179.48 90.02 183.23 90.02 186.84 30.57" style="fill:#1d1d1b; stroke-width:0px;"/><path d="m178.32,111.8l-.87-81.14h-4l-.65,81.14h0c0,.05-.01.1-.01.15,0,1.52,1.23,2.74,2.74,2.74s2.75-1.23,2.75-2.74c0-.05,0-.1-.01-.15h.06Zm-2.86.99c-.54,0-.99-.44-.99-.99s.44-.98.99-.98.98.44.98.98-.44.99-.98.99" style="fill:#1d1d1b; stroke-width:0px;"/><path d="m75.63,225.95c-1.33.91-2.97,2.4-3.02,3.74,1.14.14,1.68.7,1.64,1.85-.03.91-.73,1.73-1.7,1.73-1.3,0-1.66-1.08-1.63-2.16.07-2.4,2.12-4.7,4.23-5.9l.48.74Zm4.65,0c-1.33.91-2.97,2.4-3.02,3.74,1.14.14,1.68.7,1.64,1.85-.03.91-.73,1.73-1.71,1.73-1.3,0-1.66-1.08-1.63-2.16.07-2.4,2.12-4.7,4.23-5.9l.48.74Z" style="fill:#1e1e1c; stroke-width:0px;"/><path d="m86.26,240.27c-.73,1.22-1.8,2.3-3.3,2.3-1.8,0-2.41-1.2-2.37-2.54.03-.94.26-1.87.56-2.83l3.03-9.37,3.3-.61-1.11,3.6h1.92l-.3,1.01h-1.92l-2.47,7.86c-.11.38-.25.89-.26,1.15-.01.33.16.53.43.53.62,0,1.19-.61,1.65-1.34l.84.25Z" style="fill:#1e1e1c; stroke-width:0px;"/><path d="m101.48,240.22c-.86,1.33-1.94,2.35-3.45,2.35s-2.07-1.01-2.02-2.4c.07-2.33,2.51-5.9,2.56-7.56,0-.31-.16-.6-.51-.6-1.22,0-3.09,2.88-4.41,6.67l-1.24,3.6h-3.23l5.13-15.93,3.41-.57-2.48,7.29s1.59-2.54,3.78-2.54c1.8,0,2.45,1.61,2.41,2.88-.08,2.49-2.33,6.36-2.35,7.2,0,.26.14.48.39.48.34,0,.74-.44,1.16-1.07l.84.21Z" style="fill:#1e1e1c; stroke-width:0px;"/><path d="m187.44,230.42l-.93,2.64s1.59-2.54,3.78-2.54c1.8,0,2.45,1.61,2.41,2.88-.08,2.49-2.33,6.36-2.35,7.2,0,.26.14.48.39.48.34,0,.74-.44,1.16-1.07l.84.21c-.86,1.33-1.93,2.35-3.45,2.35s-2.07-1.01-2.02-2.4c.07-2.33,2.51-5.9,2.56-7.56.01-.31-.16-.6-.51-.6-1.23,0-3.09,2.88-4.41,6.67l-1.24,3.6h-3.22l3.62-11.25,3.37-.6Z" style="fill:#1e1e1c; stroke-width:0px;"/><path d="m113.78,238.15c-.58,1.63-2.64,4.41-5.39,4.41-2.6,0-4.21-2.13-4.12-4.85.13-4.08,4.47-7.19,7.47-7.19,1.8,0,3.02.91,2.97,2.4-.04,1.34-.98,2.57-2.35,3.31-1.07.58-2.63.86-4.66.96-.19.57-.37,1.54-.39,2.11-.05,1.53.41,2.25,1.51,2.25,1.88,0,3.62-2.18,4.19-3.69l.77.29Zm-2.39-6.62c-1.42,0-2.73,2.54-3.37,4.65,2.46-.22,4.01-1.87,4.07-3.72.02-.58-.22-.94-.7-.94" style="fill:#1e1e1c; stroke-width:0px;"/><path d="m135.49,235.39c-.12,3.64-3.35,7.17-7.17,7.17-2.35,0-4.09-1.82-3.99-4.87.11-3.64,3.35-7.17,7.17-7.17,2.35,0,4.09,1.82,4,4.87m-8.14,4.58c-.03,1.03.25,1.58,1,1.58,2.15,0,4.06-6.62,4.11-8.44.03-1.03-.25-1.58-1-1.58-2.15,0-4.06,6.62-4.11,8.44" style="fill:#1e1e1c; stroke-width:0px;"/><path d="m137.24,242.28l3.49-11.32,3.33-.53-.99,3.1s1.81-3.03,4.02-3.03c1.08,0,1.7.83,1.67,1.69-.04,1.12-.9,2.33-2.1,2.33-.8,0-1.21-.46-1.19-1.2.01-.41.17-.79.46-1.05l-.05-.05c-1.21.41-3.14,3.29-3.83,5.33l-1.65,4.75h-3.17Z" style="fill:#1e1e1c; stroke-width:0px;"/><path d="m155.53,230.45l-2.88,9.24c-.11.38-.25.89-.26,1.15,0,.33.16.53.43.53.62,0,1.19-.61,1.65-1.34l.84.25c-.73,1.22-1.8,2.3-3.3,2.3-1.8,0-2.41-1.2-2.37-2.54.03-.94.26-1.87.57-2.83l2-6.17,3.33-.58Z" style="fill:#1e1e1c; stroke-width:0px;"/><path d="m156.62,227.17c-.03,1.05-.74,2.21-2.04,2.21-.92,0-1.5-.77-1.47-1.68.03-1.05.74-2.21,2.04-2.21.92,0,1.5.77,1.47,1.68" style="fill:#1e1e1c; stroke-width:0px;"/><path d="m178.49,230.45l-2.88,9.24c-.11.38-.25.89-.26,1.15,0,.33.16.53.43.53.63,0,1.19-.61,1.65-1.34l.84.25c-.73,1.22-1.8,2.3-3.3,2.3-1.8,0-2.41-1.2-2.37-2.54.03-.94.26-1.87.57-2.83l2-6.17,3.33-.58Z" style="fill:#1e1e1c; stroke-width:0px;"/><path d="m179.58,227.17c-.03,1.05-.74,2.21-2.04,2.21-.92,0-1.5-.77-1.47-1.68.03-1.05.74-2.21,2.04-2.21.92,0,1.5.77,1.47,1.68" style="fill:#1e1e1c; stroke-width:0px;"/><path d="m217.34,225.7l-4.35,13.98c-.11.38-.25.89-.26,1.15-.01.34.16.53.43.53.63,0,1.19-.61,1.65-1.34l.84.25c-.73,1.22-1.8,2.3-3.3,2.3-1.8,0-2.41-1.2-2.37-2.54.03-.94.26-1.87.56-2.83l3.46-10.91,3.33-.58Z" style="fill:#1e1e1c; stroke-width:0px;"/><path d="m170.61,230.81l-3.76,12.14c-.86,2.83-3.88,4.17-6.53,4.17-2.2,0-3.66-1.1-3.62-2.59.03-.93.71-1.8,1.73-1.8.82,0,1.46.63,1.38,1.32-.07.63-.33.86-.63,1.08-.19.14-.32.3-.32.5.01.28.43.48,1.21.48,2.97,0,3.44-2.97,4.16-5.06,0,0-.77,1.51-2.87,1.51s-3.03-1.97-2.96-4.25c.11-3.55,3.14-7.79,6.42-7.79,1.3,0,1.82.82,2.04,1.92l.5-1.63h3.26Zm-8.45,10.55c1.9,0,3.88-5.04,3.96-7.58.05-1.49-.27-1.92-.79-1.92-1.83,0-3.83,6.38-3.89,8.35-.02.72.21,1.15.71,1.15" style="fill:#1e1e1c; stroke-width:0px;"/><path d="m207.21,240.18c-.73,1.44-1.8,2.38-3.2,2.38-1.27,0-2.09-1.01-2.05-2.49,0,0-1.09,2.42-3.38,2.49-2.34.08-3.18-2.11-3.12-4.15.12-3.77,2.82-7.89,6.4-7.89,1.97,0,2.14,1.9,2.14,1.9l.48-1.61h3.27l-2.75,8.75c-.16.5-.31,1.06-.31,1.27,0,.24.11.39.31.39.43,0,.9-.56,1.34-1.25l.87.21Zm-7.78,1.04c1.72,0,3.72-5.4,3.78-7.55.04-1.22-.19-1.8-.84-1.8-1.9,0-3.79,6.09-3.85,7.91-.03.91.23,1.44.91,1.44" style="fill:#1e1e1c; stroke-width:0px;"/><path d="m220.41,232.71c1.33-.91,2.97-2.4,3.02-3.74-1.14-.14-1.68-.7-1.64-1.85.03-.91.73-1.73,1.7-1.73,1.3,0,1.67,1.08,1.63,2.16-.07,2.4-2.12,4.7-4.23,5.9l-.48-.74Zm4.65,0c1.33-.91,2.97-2.4,3.02-3.74-1.15-.14-1.68-.7-1.64-1.85.03-.91.73-1.73,1.71-1.73,1.3,0,1.67,1.08,1.63,2.16-.08,2.4-2.12,4.7-4.23,5.9l-.48-.74Z" style="fill:#1e1e1c; stroke-width:0px;"/><path d="m55.04,161.39c-4.1.1-10.47.2-16.27-.06v1.98c2.4.04,3.75.41,4.85,1.46,1.19,1.14,1.79,2.94,1.79,5.35v22.63l-20.99-23.46c-3.62-3.97-4.44-6.04-4.72-6.86-.23-.92-.82-1.11-1.28-1.11h-.03c-3.86.25-11.14.3-15.71.12v1.98c5.04,0,6.14,1.43,9.82,5.98l-.18,29.7c-.06,4.53-2.23,6.83-6.46,6.83v1.98c4.1-.1,10.9-.2,16.72.06l.02-1.98c-2.46.08-3.73-.37-4.83-1.41-1.21-1.15-1.82-2.97-1.82-5.41l.11-26.12,30.39,34.31c.28.44.87.68,1.39.6.53-.08.97-.42.97-.99l.18-36.8c0-2.48.26-4.32,1.46-5.45,1.07-1.01,2.3-1.38,4.54-1.37l.03-1.97Z" style="fill:#1e1e1c; stroke-width:0px;"/><path d="m76.29,206l-.9-.02c-3.88-.07-4.4-1.18-4.4-7.59v-28.02c0-3.62.54-6.94,5.19-6.94l.05-1.98c-5.15.22-12.59.38-18.38,0v1.98c3.49,0,4.77,1.18,4.77,6.4v28.02c0,7.35-.35,8.15-4.74,8.15v1.98c4.48-.08,7.44-.05,12.29-.02,2.37.01,3.87.02,6.07.02l.05-1.98Z" style="fill:#1e1e1c; stroke-width:0px;"/><path d="m196.82,207.97c2.49,0,5.64-.02,8.33-.05,3.47-.03,7.44-.07,12.76-.07,17.37,0,25.56-7.53,25.56-22.39,0-15.9-10.17-24.01-27.5-24.01-1.45,0-5.17.01-6.96.02-4.14.02-7.6.06-12.14-.02v1.97c5.9,0,5.52,1.98,5.52,8.15v25.66c0,6.63-1.15,8.76-5.58,8.76v1.98Zm14.63-43.13h2.46c13.44,0,19.79,5.69,19.79,20.62,0,12.41-3.83,19.19-14.76,19.19-5.67,0-7.48-1.18-7.48-5.93v-33.87Z" style="fill:#1e1e1c; stroke-width:0px;"/><path d="m273.22,160.55c-17.38,0-25.17,12.15-25.17,24.19,0,14.94,9.58,24.03,24.92,24.03s25.3-9.85,25.3-23.42c0-16.71-11.57-24.79-25.06-24.79m15.32,23.48c0,12.9-5.85,21.57-15.32,21.57s-15.6-8.59-15.6-21.38,5.91-20.5,15.05-20.5c10.1,0,15.86,7.4,15.86,20.31" style="fill:#1e1e1c; stroke-width:0px;"/><path d="m192.15,205.98c-3.36,0-4.5-1.95-4.5-7.58v-28.02c0-4.99.64-6.94,5.29-6.94l-.02-1.98c-5.14.22-14.61.38-20.4,0v1.98c4.67.07,6.07,1.18,6.07,6.4v28.02c0,7.35-3.23,8.4-5.79,8.22-1.99-.14-5.59-1.24-8.92-8.96l-10.36-26.75c-1.64-3.99-2.48-6.41-2.48-8.27,0-.53-.42-.93-1-.93-4.36.11-8.21.04-17.46-.06v1.98c5.43,0,7.62,1.51,8.85,4.41l-11.26,30.29c-1.71,4.06-3.02,7.81-5.57,7.9-2.44.1-4.52-1.31-6.26-4.39l-5.85-11.44c-3.69-6.06-4.65-7.23-11.64-7.58l7.64-9.83c4.35-5.46,8.1-8.81,11.62-9.19l-.05-1.91c-4.34.36-11.55.37-15.81,0l.04,1.98c1.2.06,2.73.37,3.25,1.53.68,1.51-.12,3.52-2.35,6.31l-8.81,10.95-2.76.05v-8.75c0-8.06-.84-9.54,2.81-9.91l-.07-1.97c-6.01.19-11.24.17-16.54-.06l-.04,1.98c4.41.05,5.12,1.76,5.12,10.03v21.97c0,8.97-.64,10.57-4.96,10.57v1.98c7.23-.2,12.37-.24,18.6-.12l-.02-1.98c-2,.11-2.79-.23-3.65-1.06-1.37-1.31-1.25-4.07-1.25-9.52v-9.91c2.61,0,5.53.46,8.44,5.87,0,0,2.7,5.08,4.95,9.32,2.29,4.33,2.24,6.5,2.24,6.5.05.59.55.89,1.15.89h0c2.11-.06,11.17-.04,13.68-.04s10.47,0,12.62.1v-1.98c-2.1,0-3.07-.44-3.66-1.31-.75-1.12-.12-3.61.74-6.17.08-.23.33-.91.71-1.89h18.8l.66,1.67c1.37,3.14,1.71,5.29,1.01,6.39-.55.84-1.74,1.22-3.99,1.25l.03,1.98h0c4.81-.29,17.25-.01,21.41-.01s18.39.01,20.59.01v-1.98s-.85-.02-.85-.02Zm-56.32-12.76c2.09-5.46,5.36-14.03,7.83-21.09l8.28,21.09h-16.11Z" style="fill:#1e1e1c; stroke-width:0px;"/><path d="m10.14,283.9c-1.18,0-2.34-.21-3.45-.62-1.11-.41-2.14-1.02-3.08-1.81-1.15-.97-2.04-2.13-2.67-3.48-.63-1.35-.94-2.77-.94-4.27,0-1.29.24-2.52.72-3.69.48-1.17,1.17-2.21,2.09-3.14,1.01-1.04,2.18-1.83,3.5-2.38,1.32-.55,2.73-.82,4.23-.82,1.36,0,2.65.23,3.86.7,1.21.46,2.3,1.14,3.27,2.03,1,.92,1.76,1.99,2.27,3.21.52,1.22.78,2.54.78,3.97,0,1.02-.13,1.99-.39,2.9-.26.9-.64,1.76-1.14,2.56-.93,1.48-2.21,2.66-3.84,3.54-1.63.88-3.37,1.31-5.21,1.31m6.46-8.89c.06-1.39-.14-2.71-.68-3.73-.85-1.6-1.46-2.12-2.45-2.92-.98-.69-2.39-1.08-3.75-1.03-3.33.12-7.01,3.15-4.91,8.21.36.88.98,1.88,1.72,2.72,3.37,3.8,9.83,2.53,10.08-3.24" style="fill:#1e1e1c; stroke-width:0px;"/><path d="m225.17,283.9c-1.18,0-2.34-.21-3.45-.62-1.11-.41-2.14-1.02-3.08-1.81-1.15-.97-2.04-2.13-2.67-3.48-.63-1.35-.94-2.77-.94-4.27,0-1.29.24-2.52.72-3.69.48-1.17,1.17-2.21,2.09-3.14,1.01-1.04,2.18-1.83,3.5-2.38,1.32-.55,2.73-.82,4.23-.82,1.36,0,2.65.23,3.86.7,1.21.46,2.3,1.14,3.27,2.03,1,.92,1.76,1.99,2.27,3.21.52,1.22.78,2.54.78,3.97,0,1.02-.13,1.99-.39,2.9-.26.9-.64,1.76-1.14,2.56-.93,1.48-2.21,2.66-3.84,3.54-1.63.88-3.37,1.31-5.21,1.31m6.46-8.89c.06-1.39-.14-2.71-.68-3.73-.85-1.6-1.46-2.12-2.45-2.92-.98-.69-2.39-1.08-3.75-1.03-3.33.12-7.01,3.15-4.91,8.21.36.88.98,1.88,1.72,2.72,3.37,3.8,9.83,2.53,10.08-3.24" style="fill:#1e1e1c; stroke-width:0px;"/><path d="m25.57,283.72c.28-.73.49-1.52.63-2.35.13-.83.2-1.77.2-2.81v-9.52c0-1.05-.07-1.99-.2-2.82-.14-.83-.35-1.61-.63-2.33h5.81c-.28.73-.49,1.51-.63,2.33-.14.83-.2,1.78-.2,2.82v9.52c0,1.04.07,1.98.2,2.81.14.83.34,1.61.63,2.35h-5.81Z" style="fill:#1e1e1c; stroke-width:0px;"/><path d="m40.34,283.72c.29-.73.5-1.52.64-2.35.14-.83.21-1.77.21-2.81v-11.95c-1,.06-1.98.23-2.93.51-.96.28-1.66.57-2.6,1.08l.73-4.33h14.42l-1.02,3.93c-.65-.38-1.33-.67-2.06-.87-.73-.19-1.58-.31-2.41-.33v11.95c0,1.04.07,1.98.2,2.81.14.83.35,1.61.64,2.35h-5.83Z" style="fill:#1e1e1c; stroke-width:0px;"/><path d="m61.72,268.16c-.32,1.1-3.76,12.78-3.76,12.78-.16.66-.28,1.45-.28,1.68,0,.2.01.4.04.58.03.18.14.35.21.52h-6.42c.57-.79,1.08-1.55,1.51-2.29.43-.74.79-1.45,1.07-2.14l5.69-15.41h4.07l5.86,15.23s1.55,3.74,2.38,4.61h-6c.05-.17.09-.33.11-.49.03-.16.04-.31.04-.46,0-.15-.02-.33-.05-.51-.04-.19-.11-.48-.23-.87,0,0-3.98-12.11-4.23-13.23" style="fill:#1e1e1c; stroke-width:0px;"/><path d="m123.82,281.78c-.79.7-1.64,1.23-2.54,1.59-.9.36-1.81.54-2.74.54-1.01,0-1.93-.21-2.77-.63-.84-.42-1.55-1.03-2.14-1.83-.5-.66-.85-1.39-1.06-2.17-.21-.78-.31-2-.31-3.65v-6.58c0-1.05-.07-1.99-.21-2.82-.14-.83-.35-1.61-.64-2.33h5.82c-.29.74-.51,1.53-.65,2.38-.14.84-.21,1.77-.21,2.78v7.11c0,1.62.25,2.79.74,3.49.5.71,1.29,1.07,2.39,1.07.63,0,1.28-.13,1.96-.4.67-.26,1.38-.66,2.11-1.19v-10.08c0-1.05-.07-1.99-.21-2.82-.14-.83-.35-1.61-.64-2.33h5.82c-.29.72-.5,1.5-.64,2.33-.13.83-.2,1.77-.2,2.82v9.52c0,1.04.07,1.98.2,2.81.14.83.35,1.62.64,2.35h-4.75v-1.95Z" style="fill:#1e1e1c; stroke-width:0px;"/><path d="m150.31,282.65c-1.15.43-2.29.74-3.41.95-1.12.2-2.25.31-3.39.31-3.26,0-5.86-.89-7.79-2.67-1.93-1.78-2.9-4.16-2.9-7.14,0-1.46.27-2.83.81-4.12.54-1.29,1.32-2.42,2.33-3.4,1.02-.98,2.21-1.71,3.57-2.19,1.37-.48,2.92-.72,4.65-.72.65,0,1.35.04,2.12.12.76.08,1.59.2,2.46.35l-.08,4.73c-.73-.69-1.52-1.2-2.37-1.53-.85-.33-1.8-.49-2.86-.49-1.93,0-3.44.61-4.55,1.83-1.1,1.22-1.66,2.9-1.66,5.04s.62,3.99,1.86,5.27c1.24,1.27,2.95,1.91,5.14,1.91.24,0,.51-.02.8-.05.3-.03.63-.09,1-.17v-3.14c0-.79-.08-1.49-.24-2.1-.16-.61-.41-1.15-.76-1.62h5.58c-.24.46-.42,1-.53,1.62-.11.62-.17,1.37-.17,2.23v2.52c0,.49.03.93.09,1.33.06.4.15.78.28,1.13" style="fill:#1e1e1c; stroke-width:0px;"/><path d="m156.21,283.72c.28-.73.49-1.52.63-2.35.13-.83.2-1.77.2-2.81v-9.52c0-1.05-.07-1.99-.2-2.82-.14-.83-.35-1.61-.63-2.33h5.81c-.28.73-.49,1.51-.63,2.33-.14.83-.2,1.78-.2,2.82v9.52c0,1.04.07,1.98.2,2.81.14.83.35,1.61.63,2.35h-5.81Z" style="fill:#1e1e1c; stroke-width:0px;"/><path d="m177.56,283.4l-.26-4.95c.73.84,1.49,1.46,2.29,1.86.8.4,1.65.61,2.56.61s1.54-.16,1.95-.49c.41-.33.61-.79.61-1.37,0-.47-.15-.9-.45-1.3-.3-.4-.82-.83-1.57-1.31-.21-.14-.52-.33-.91-.58-1.33-.85-2.15-1.4-2.45-1.68-.77-.74-1.31-1.43-1.63-2.1-.31-.67-.47-1.44-.47-2.32,0-1.82.58-3.3,1.75-4.41,1.17-1.12,2.73-1.67,4.67-1.67.57,0,1.18.06,1.86.17.68.12,1.42.29,2.22.52l-.1,4.01c-.62-.56-1.23-.98-1.84-1.25-.62-.27-1.26-.41-1.93-.41-.72,0-1.29.2-1.72.6-.43.4-.64.94-.64,1.63,0,1.08.92,2.17,2.77,3.28.44.26.77.45,1.01.6,1.32.82,2.23,1.62,2.78,2.42.55.79.87,1.71.87,2.75,0,1.8-.65,3.3-1.94,4.36-1.29,1.06-2.97,1.52-5.61,1.52-.67,0-1.31-.04-1.95-.12-.63-.08-1.26-.21-1.87-.38" style="fill:#1e1e1c; stroke-width:0px;"/><path d="m206.15,271.94v-2.91c0-1.01-.07-1.94-.21-2.78-.14-.84-.36-1.63-.66-2.38h5.83c-.29.72-.51,1.5-.64,2.33-.14.83-.21,1.77-.21,2.82v9.52c0,1.04.07,1.98.21,2.81.14.83.35,1.62.64,2.35h-5.83c.3-.75.52-1.55.66-2.39.14-.84.21-1.76.21-2.77v-3.34h-7.61v3.34c0,1.04.07,1.98.21,2.81.14.83.35,1.62.62,2.35h-5.81c.28-.73.49-1.52.62-2.35.13-.83.2-1.77.2-2.81v-9.52c0-1.05-.07-1.99-.2-2.82-.14-.83-.35-1.61-.62-2.33h5.81c-.28.72-.49,1.5-.62,2.33-.14.83-.21,1.77-.21,2.82v2.91h7.61Z" style="fill:#1e1e1c; stroke-width:0px;"/><path d="m255.57,269.44c-.86-.86-1.74-1.51-2.64-1.93-.89-.43-1.82-.64-2.76-.64-1.79,0-3.24.64-4.34,1.91-1.11,1.28-1.66,2.96-1.66,5.04s.59,3.84,1.77,5.13,2.75,1.93,4.71,1.93c1.07,0,2.04-.21,2.88-.64.85-.43,1.64-1.11,2.37-2.03l-.58,4.53c-.94.42-1.9.73-2.89.93-.99.2-2,.3-3.08.3-1.23,0-2.36-.16-3.4-.47-1.04-.31-1.99-.79-2.85-1.43-1.25-.93-2.15-2.02-2.78-3.28-.62-1.25-.9-2.67-.9-4.25s.28-3.15.89-4.58c1.26-2.95,4.64-6.64,10.66-6.25.71.05,1.46.07,2.23.2.77.13,1.56.33,2.37.6v4.95Z" style="fill:#1e1e1c; stroke-width:0px;"/><path d="m273.53,271.94v-2.91c0-1.01-.07-1.94-.21-2.78-.14-.84-.36-1.63-.66-2.38h5.83c-.29.72-.51,1.5-.64,2.33-.14.83-.21,1.77-.21,2.82v9.52c0,1.04.07,1.98.21,2.81.14.83.35,1.62.64,2.35h-5.83c.3-.75.52-1.55.66-2.39.14-.84.21-1.76.21-2.77v-3.34h-7.61v3.34c0,1.04.07,1.98.21,2.81.14.83.35,1.62.62,2.35h-5.81c.28-.73.49-1.52.62-2.35.13-.83.2-1.77.2-2.81v-9.52c0-1.05-.07-1.99-.2-2.82-.14-.83-.35-1.61-.62-2.33h5.81c-.28.72-.49,1.5-.62,2.33-.14.83-.21,1.77-.21,2.82v2.91h7.61Z" style="fill:#1e1e1c; stroke-width:0px;"/><path d="m296.19,281.78c-.8.7-1.64,1.23-2.54,1.59-.9.36-1.81.54-2.74.54-1.01,0-1.93-.21-2.77-.63-.84-.42-1.55-1.03-2.14-1.83-.5-.66-.85-1.39-1.06-2.17-.21-.78-.31-2-.31-3.65v-6.58c0-1.05-.07-1.99-.21-2.82-.14-.83-.35-1.61-.64-2.33h5.82c-.29.74-.5,1.53-.65,2.38-.14.84-.21,1.77-.21,2.78v7.11c0,1.62.25,2.79.74,3.49.49.71,1.29,1.07,2.39,1.07.63,0,1.28-.13,1.96-.4.67-.26,1.38-.66,2.11-1.19v-10.08c0-1.05-.07-1.99-.21-2.82-.14-.83-.35-1.61-.64-2.33h5.82c-.29.72-.5,1.5-.64,2.33-.13.83-.2,1.77-.2,2.82v9.52c0,1.04.07,1.98.2,2.81.14.83.35,1.62.64,2.35h-4.75v-1.95Z" style="fill:#1e1e1c; stroke-width:0px;"/><rect x="55.9" y="276.64" width="11.32" height="3.35" style="fill:#1e1e1c; stroke-width:0px;"/><path d="m105.82,278.56c0,1.01.07,1.93.21,2.77.14.84.36,1.64.65,2.39h-5.58c.29-.73.5-1.52.63-2.35.13-.83.2-1.77.2-2.81v-8.37l-5.66,7.45-5.71-7.45v8.37c0,1.04.07,1.98.2,2.81.14.83.35,1.61.63,2.35h-5.58c.29-.75.51-1.55.65-2.39.15-.84.22-1.77.22-2.77v-9.54c0-1.01-.07-1.93-.22-2.77-.14-.84-.36-1.64-.65-2.39l4.51.02,5.95,7.86,5.88-7.86" style="fill:#1e1e1c; stroke-width:0px;"/><path d="m105.82,278.56v-9.54c0-1.01.07-1.93.21-2.77.14-.84.36-1.64.65-2.39l-4.53.02" style="fill:#1e1e1c; stroke-width:0px;"/></g></svg>